<?xml version="1.0" encoding="utf-8"?>
<!-- Generator: Adobe Illustrator 16.0.4, SVG Export Plug-In . SVG Version: 6.00 Build 0)  -->
<!DOCTYPE svg PUBLIC "-//W3C//DTD SVG 1.1//EN" "http://www.w3.org/Graphics/SVG/1.1/DTD/svg11.dtd">
<svg version="1.1" id="Capa_1" xmlns="http://www.w3.org/2000/svg" xmlns:xlink="http://www.w3.org/1999/xlink" x="0px" y="0px"
	 width="64px" height="64px" viewBox="0 0 64 64" enable-background="new 0 0 64 64" xml:space="preserve">
<g>
	<path d="M12.137,47.473c0.229,0,0.474-0.029,0.729-0.093c2.483-0.599,5.515-0.901,9.013-0.901c1.207,0,2.435,0.037,3.646,0.109
		c0.895,0.049,1.649-0.262,2.119-0.875c0.443-0.578,0.568-1.34,0.352-2.146c-3.363-12.556-1.24-21.581-0.171-24.878
		c0.201-0.62,0.336-1.264-0.028-1.765c-0.189-0.259-0.567-0.451-0.887-0.451c-0.586,0-1.027,0.439-1.415,0.914
		C19.02,25.293,12.886,39.143,10.548,44.73c-0.406,0.973-0.195,1.621,0.054,1.994C10.922,47.207,11.468,47.473,12.137,47.473z
		 M25.085,21.234c-0.996,4.679-1.748,12.674,0.978,22.85c0.059,0.221,0.033,0.359-0.007,0.411c-0.046,0.062-0.148,0.104-0.412,0.097
		c-1.252-0.074-2.519-0.113-3.767-0.113c-3.644,0-6.825,0.32-9.456,0.951C14.504,40.458,19.545,29.068,25.085,21.234z"/>
	<path d="M33.072,45.432c0.475,0.614,1.225,0.932,2.133,0.864c1.545-0.108,3.952-0.241,6.648-0.241
		c5.506,0,9.944,0.553,12.834,1.596c0.379,0.138,0.709,0.203,1.012,0.203c0.001,0,0.001,0,0.001,0c0.552,0,1.021-0.238,1.284-0.654
		c0.316-0.502,0.295-1.145-0.065-1.912c-2.596-5.508-11.825-24.147-21.573-32.755c-0.951-0.838-1.902-0.815-2.4-0.155
		c-0.321,0.43-0.365,1.022-0.135,1.813c1.194,4.077,3.578,15.073-0.099,29.097C32.5,44.093,32.628,44.855,33.072,45.432z
		 M34.646,43.794c3.438-13.118,1.742-23.711,0.467-28.753C43.878,23.495,52.1,39.818,54.85,45.592
		c-3.123-1.021-7.49-1.537-12.996-1.537c-2.756,0-5.213,0.135-6.873,0.25c-0.155,0-0.279-0.035-0.324-0.095
		C34.615,44.156,34.588,44.016,34.646,43.794z"/>
	<path d="M58.995,49.971c-0.297-0.461-0.817-0.725-1.427-0.725H31.454V6.043V5.545V3.764c0-0.553-0.447-1-1-1
		c-0.229,0-0.429,0.09-0.597,0.218c-0.46-0.212-0.983-0.309-1.546-0.221c-4.113,0.643-9.571,2.548-12.458,3.627
		c-0.654,0.244-1.55,0.578-1.384,1.496c0.026,0.145,0.206,0.866,1.175,0.866c0.17,0,0.436-0.021,0.794-0.07
		c1.467-0.201,3.147-0.303,4.991-0.303c2.72,0,5.27,0.22,6.93,0.405c0.114,0.013,0.227,0.019,0.339,0.019
		c0.267,0,0.516-0.045,0.756-0.109v40.555H10.212c-0.598,0-1.118,0.258-1.426,0.708c-0.309,0.449-0.361,1.027-0.145,1.586
		l1.527,3.945c0.154,0.396,0.294,1.146,0.294,1.57v1.125c0,1.103,0.898,2,2,2h42.39c1.104,0,2-0.897,2-2l-0.004-1.008l0.047-0.512
		c0.014-0.126,0.157-0.63,0.373-1.105l1.801-3.988C59.318,51.014,59.292,50.432,58.995,49.971z M28.58,6.794
		c-1.59-0.177-3.973-0.386-6.56-0.414c2.215-0.689,4.587-1.329,6.6-1.643c0.456-0.077,0.834,0.305,0.834,0.808v0.498
		C29.454,6.535,29.08,6.856,28.58,6.794z M55.443,54.732c-0.231,0.514-0.5,1.278-0.543,1.748l-0.049,0.604l0.002,1.097H12.462
		v-1.125c0-0.676-0.184-1.662-0.429-2.293l-1.361-3.518H57.02L55.443,54.732z"/>
</g>
</svg>
